<?xml version="1.0" standalone="no"?>
<!DOCTYPE svg PUBLIC "-//W3C//DTD SVG 20010904//EN"
 "http://www.w3.org/TR/2001/REC-SVG-20010904/DTD/svg10.dtd">
<svg version="1.0" xmlns="http://www.w3.org/2000/svg"
 width="260.000000pt" height="260.000000pt" viewBox="0 0 260.000000 260.000000"
 preserveAspectRatio="xMidYMid meet">
<metadata>
Created by potrace 1.11, written by Peter Selinger 2001-2013
</metadata>
<g transform="translate(0.000000,260.000000) scale(0.100000,-0.100000)"
fill="#000000" stroke="none">
<path d="M0 1300 l0 -1300 1300 0 1300 0 0 1300 0 1300 -1300 0 -1300 0 0
-1300z m1268 863 c-3 -126 -3 -128 -27 -131 -33 -5 -103 -79 -121 -127 -18
-52 -27 -996 -10 -1080 16 -78 61 -140 116 -161 l44 -17 0 -127 0 -126 -57 7
c-84 10 -111 18 -175 52 -79 41 -152 121 -194 213 -58 125 -65 178 -71 574 -9
607 17 766 150 907 82 87 192 137 315 142 l33 1 -3 -127z m237 96 c129 -48
226 -152 269 -287 41 -131 48 -240 44 -692 -4 -387 -6 -420 -26 -493 -28 -102
-83 -205 -138 -259 -24 -24 -44 -49 -44 -56 0 -20 60 -51 123 -64 l57 -12 0
-99 0 -100 -67 6 c-98 9 -195 59 -267 138 -54 58 -59 61 -96 57 l-40 -4 0 127
0 126 41 12 c54 16 96 63 117 131 15 49 17 111 17 550 0 439 -2 501 -17 550
-22 69 -62 117 -113 135 l-40 13 -3 127 -3 128 66 -7 c36 -4 90 -16 120 -27z"/>
</g>
</svg>
